<?xml version="1.0" encoding="utf-8" standalone="no"?>
<!DOCTYPE svg PUBLIC "-//W3C//DTD SVG 1.1//EN"
  "http://www.w3.org/Graphics/SVG/1.1/DTD/svg11.dtd">
<svg xmlns:xlink="http://www.w3.org/1999/xlink" width="720pt" height="216pt" viewBox="0 0 720 216" xmlns="http://www.w3.org/2000/svg" version="1.1">
 <metadata>
  <rdf:RDF xmlns:dc="http://purl.org/dc/elements/1.1/" xmlns:cc="http://creativecommons.org/ns#" xmlns:rdf="http://www.w3.org/1999/02/22-rdf-syntax-ns#">
   <cc:Work>
    <dc:type rdf:resource="http://purl.org/dc/dcmitype/StillImage"/>
    <dc:date>2025-08-19T16:54:31.558457</dc:date>
    <dc:format>image/svg+xml</dc:format>
    <dc:creator>
     <cc:Agent>
      <dc:title>Matplotlib v3.10.1, https://matplotlib.org/</dc:title>
     </cc:Agent>
    </dc:creator>
   </cc:Work>
  </rdf:RDF>
 </metadata>
 <defs>
  <style type="text/css">*{stroke-linejoin: round; stroke-linecap: butt}</style>
 </defs>
 <g id="figure_1">
  <g id="patch_1">
   <path d="M 0 216 
L 720 216 
L 720 0 
L 0 0 
z
" style="fill: #ffffff"/>
  </g>
  <g id="axes_1">
   <g id="patch_2">
    <path d="M 90 192.24 
L 648 192.24 
L 648 25.92 
L 90 25.92 
z
" style="fill: #ffffff"/>
   </g>
   <g id="patch_3">
    <path d="M 115.363636 192.24 
L 130.735537 192.24 
L 130.735537 192.238478 
L 115.363636 192.238478 
z
" clip-path="url(#pb990604990)" style="fill: #7f7f7f"/>
   </g>
   <g id="patch_4">
    <path d="M 146.107438 192.24 
L 161.479339 192.24 
L 161.479339 192.236116 
L 146.107438 192.236116 
z
" clip-path="url(#pb990604990)" style="fill: #7f7f7f"/>
   </g>
   <g id="patch_5">
    <path d="M 176.85124 192.24 
L 192.22314 192.24 
L 192.22314 192.234517 
L 176.85124 192.234517 
z
" clip-path="url(#pb990604990)" style="fill: #7f7f7f"/>
   </g>
   <g id="patch_6">
    <path d="M 207.595041 192.24 
L 222.966942 192.24 
L 222.966942 192.233128 
L 207.595041 192.233128 
z
" clip-path="url(#pb990604990)" style="fill: #7f7f7f"/>
   </g>
   <g id="patch_7">
    <path d="M 238.338843 192.24 
L 253.710744 192.24 
L 253.710744 192.231474 
L 238.338843 192.231474 
z
" clip-path="url(#pb990604990)" style="fill: #7f7f7f"/>
   </g>
   <g id="patch_8">
    <path d="M 269.082645 192.24 
L 284.454545 192.24 
L 284.454545 192.231078 
L 269.082645 192.231078 
z
" clip-path="url(#pb990604990)" style="fill: #7f7f7f"/>
   </g>
   <g id="patch_9">
    <path d="M 299.826446 192.24 
L 315.198347 192.24 
L 315.198347 192.230957 
L 299.826446 192.230957 
z
" clip-path="url(#pb990604990)" style="fill: #7f7f7f"/>
   </g>
   <g id="patch_10">
    <path d="M 330.570248 192.24 
L 345.942149 192.24 
L 345.942149 192.230116 
L 330.570248 192.230116 
z
" clip-path="url(#pb990604990)" style="fill: #7f7f7f"/>
   </g>
   <g id="patch_11">
    <path d="M 361.31405 192.24 
L 376.68595 192.24 
L 376.68595 192.228979 
L 361.31405 192.228979 
z
" clip-path="url(#pb990604990)" style="fill: #7f7f7f"/>
   </g>
   <g id="patch_12">
    <path d="M 392.057851 192.24 
L 407.429752 192.24 
L 407.429752 192.218175 
L 392.057851 192.218175 
z
" clip-path="url(#pb990604990)" style="fill: #7f7f7f"/>
   </g>
   <g id="patch_13">
    <path d="M 422.801653 192.24 
L 438.173554 192.24 
L 438.173554 192.215408 
L 422.801653 192.215408 
z
" clip-path="url(#pb990604990)" style="fill: #7f7f7f"/>
   </g>
   <g id="patch_14">
    <path d="M 453.545455 192.24 
L 468.917355 192.24 
L 468.917355 192.214414 
L 453.545455 192.214414 
z
" clip-path="url(#pb990604990)" style="fill: #7f7f7f"/>
   </g>
   <g id="patch_15">
    <path d="M 484.289256 192.24 
L 499.661157 192.24 
L 499.661157 192.213653 
L 484.289256 192.213653 
z
" clip-path="url(#pb990604990)" style="fill: #7f7f7f"/>
   </g>
   <g id="patch_16">
    <path d="M 515.033058 192.24 
L 530.404959 192.24 
L 530.404959 192.204125 
L 515.033058 192.204125 
z
" clip-path="url(#pb990604990)" style="fill: #7f7f7f"/>
   </g>
   <g id="patch_17">
    <path d="M 545.77686 192.24 
L 561.14876 192.24 
L 561.14876 192.094135 
L 545.77686 192.094135 
z
" clip-path="url(#pb990604990)" style="fill: #7f7f7f"/>
   </g>
   <g id="patch_18">
    <path d="M 576.520661 192.24 
L 591.892562 192.24 
L 591.892562 192.094042 
L 576.520661 192.094042 
z
" clip-path="url(#pb990604990)" style="fill: #7f7f7f"/>
   </g>
   <g id="patch_19">
    <path d="M 607.264463 192.24 
L 622.636364 192.24 
L 622.636364 33.84 
L 607.264463 33.84 
z
" clip-path="url(#pb990604990)" style="fill: #7f7f7f"/>
   </g>
   <g id="matplotlib.axis_1">
    <g id="xtick_1">
     <g id="line2d_1">
      <defs>
       <path id="ma2281555cf" d="M 0 0 
L 0 3.5 
" style="stroke: #000000; stroke-width: 0.8"/>
      </defs>
      <g>
       <use xlink:href="#ma2281555cf" x="123.049587" y="192.24" style="stroke: #000000; stroke-width: 0.8"/>
      </g>
     </g>
     <g id="text_1">
      <!-- Inv A: Rep isoG -->
      <g transform="translate(68.100761 258.091172) rotate(-45) scale(0.1 -0.1)">
       <defs>
        <path id="DejaVuSans-49" d="M 628 4666 
L 1259 4666 
L 1259 0 
L 628 0 
L 628 4666 
z
" transform="scale(0.015625)"/>
        <path id="DejaVuSans-6e" d="M 3513 2113 
L 3513 0 
L 2938 0 
L 2938 2094 
Q 2938 2591 2744 2837 
Q 2550 3084 2163 3084 
Q 1697 3084 1428 2787 
Q 1159 2491 1159 1978 
L 1159 0 
L 581 0 
L 581 3500 
L 1159 3500 
L 1159 2956 
Q 1366 3272 1645 3428 
Q 1925 3584 2291 3584 
Q 2894 3584 3203 3211 
Q 3513 2838 3513 2113 
z
" transform="scale(0.015625)"/>
        <path id="DejaVuSans-76" d="M 191 3500 
L 800 3500 
L 1894 563 
L 2988 3500 
L 3597 3500 
L 2284 0 
L 1503 0 
L 191 3500 
z
" transform="scale(0.015625)"/>
        <path id="DejaVuSans-20" transform="scale(0.015625)"/>
        <path id="DejaVuSans-41" d="M 2188 4044 
L 1331 1722 
L 3047 1722 
L 2188 4044 
z
M 1831 4666 
L 2547 4666 
L 4325 0 
L 3669 0 
L 3244 1197 
L 1141 1197 
L 716 0 
L 50 0 
L 1831 4666 
z
" transform="scale(0.015625)"/>
        <path id="DejaVuSans-3a" d="M 750 794 
L 1409 794 
L 1409 0 
L 750 0 
L 750 794 
z
M 750 3309 
L 1409 3309 
L 1409 2516 
L 750 2516 
L 750 3309 
z
" transform="scale(0.015625)"/>
        <path id="DejaVuSans-52" d="M 2841 2188 
Q 3044 2119 3236 1894 
Q 3428 1669 3622 1275 
L 4263 0 
L 3584 0 
L 2988 1197 
Q 2756 1666 2539 1819 
Q 2322 1972 1947 1972 
L 1259 1972 
L 1259 0 
L 628 0 
L 628 4666 
L 2053 4666 
Q 2853 4666 3247 4331 
Q 3641 3997 3641 3322 
Q 3641 2881 3436 2590 
Q 3231 2300 2841 2188 
z
M 1259 4147 
L 1259 2491 
L 2053 2491 
Q 2509 2491 2742 2702 
Q 2975 2913 2975 3322 
Q 2975 3731 2742 3939 
Q 2509 4147 2053 4147 
L 1259 4147 
z
" transform="scale(0.015625)"/>
        <path id="DejaVuSans-65" d="M 3597 1894 
L 3597 1613 
L 953 1613 
Q 991 1019 1311 708 
Q 1631 397 2203 397 
Q 2534 397 2845 478 
Q 3156 559 3463 722 
L 3463 178 
Q 3153 47 2828 -22 
Q 2503 -91 2169 -91 
Q 1331 -91 842 396 
Q 353 884 353 1716 
Q 353 2575 817 3079 
Q 1281 3584 2069 3584 
Q 2775 3584 3186 3129 
Q 3597 2675 3597 1894 
z
M 3022 2063 
Q 3016 2534 2758 2815 
Q 2500 3097 2075 3097 
Q 1594 3097 1305 2825 
Q 1016 2553 972 2059 
L 3022 2063 
z
" transform="scale(0.015625)"/>
        <path id="DejaVuSans-70" d="M 1159 525 
L 1159 -1331 
L 581 -1331 
L 581 3500 
L 1159 3500 
L 1159 2969 
Q 1341 3281 1617 3432 
Q 1894 3584 2278 3584 
Q 2916 3584 3314 3078 
Q 3713 2572 3713 1747 
Q 3713 922 3314 415 
Q 2916 -91 2278 -91 
Q 1894 -91 1617 61 
Q 1341 213 1159 525 
z
M 3116 1747 
Q 3116 2381 2855 2742 
Q 2594 3103 2138 3103 
Q 1681 3103 1420 2742 
Q 1159 2381 1159 1747 
Q 1159 1113 1420 752 
Q 1681 391 2138 391 
Q 2594 391 2855 752 
Q 3116 1113 3116 1747 
z
" transform="scale(0.015625)"/>
        <path id="DejaVuSans-69" d="M 603 3500 
L 1178 3500 
L 1178 0 
L 603 0 
L 603 3500 
z
M 603 4863 
L 1178 4863 
L 1178 4134 
L 603 4134 
L 603 4863 
z
" transform="scale(0.015625)"/>
        <path id="DejaVuSans-73" d="M 2834 3397 
L 2834 2853 
Q 2591 2978 2328 3040 
Q 2066 3103 1784 3103 
Q 1356 3103 1142 2972 
Q 928 2841 928 2578 
Q 928 2378 1081 2264 
Q 1234 2150 1697 2047 
L 1894 2003 
Q 2506 1872 2764 1633 
Q 3022 1394 3022 966 
Q 3022 478 2636 193 
Q 2250 -91 1575 -91 
Q 1294 -91 989 -36 
Q 684 19 347 128 
L 347 722 
Q 666 556 975 473 
Q 1284 391 1588 391 
Q 1994 391 2212 530 
Q 2431 669 2431 922 
Q 2431 1156 2273 1281 
Q 2116 1406 1581 1522 
L 1381 1569 
Q 847 1681 609 1914 
Q 372 2147 372 2553 
Q 372 3047 722 3315 
Q 1072 3584 1716 3584 
Q 2034 3584 2315 3537 
Q 2597 3491 2834 3397 
z
" transform="scale(0.015625)"/>
        <path id="DejaVuSans-6f" d="M 1959 3097 
Q 1497 3097 1228 2736 
Q 959 2375 959 1747 
Q 959 1119 1226 758 
Q 1494 397 1959 397 
Q 2419 397 2687 759 
Q 2956 1122 2956 1747 
Q 2956 2369 2687 2733 
Q 2419 3097 1959 3097 
z
M 1959 3584 
Q 2709 3584 3137 3096 
Q 3566 2609 3566 1747 
Q 3566 888 3137 398 
Q 2709 -91 1959 -91 
Q 1206 -91 779 398 
Q 353 888 353 1747 
Q 353 2609 779 3096 
Q 1206 3584 1959 3584 
z
" transform="scale(0.015625)"/>
        <path id="DejaVuSans-47" d="M 3809 666 
L 3809 1919 
L 2778 1919 
L 2778 2438 
L 4434 2438 
L 4434 434 
Q 4069 175 3628 42 
Q 3188 -91 2688 -91 
Q 1594 -91 976 548 
Q 359 1188 359 2328 
Q 359 3472 976 4111 
Q 1594 4750 2688 4750 
Q 3144 4750 3555 4637 
Q 3966 4525 4313 4306 
L 4313 3634 
Q 3963 3931 3569 4081 
Q 3175 4231 2741 4231 
Q 1884 4231 1454 3753 
Q 1025 3275 1025 2328 
Q 1025 1384 1454 906 
Q 1884 428 2741 428 
Q 3075 428 3337 486 
Q 3600 544 3809 666 
z
" transform="scale(0.015625)"/>
       </defs>
       <use xlink:href="#DejaVuSans-49"/>
       <use xlink:href="#DejaVuSans-6e" transform="translate(29.492188 0)"/>
       <use xlink:href="#DejaVuSans-76" transform="translate(92.871094 0)"/>
       <use xlink:href="#DejaVuSans-20" transform="translate(152.050781 0)"/>
       <use xlink:href="#DejaVuSans-41" transform="translate(183.837891 0)"/>
       <use xlink:href="#DejaVuSans-3a" transform="translate(250.496094 0)"/>
       <use xlink:href="#DejaVuSans-20" transform="translate(284.1875 0)"/>
       <use xlink:href="#DejaVuSans-52" transform="translate(315.974609 0)"/>
       <use xlink:href="#DejaVuSans-65" transform="translate(380.957031 0)"/>
       <use xlink:href="#DejaVuSans-70" transform="translate(442.480469 0)"/>
       <use xlink:href="#DejaVuSans-20" transform="translate(505.957031 0)"/>
       <use xlink:href="#DejaVuSans-69" transform="translate(537.744141 0)"/>
       <use xlink:href="#DejaVuSans-73" transform="translate(565.527344 0)"/>
       <use xlink:href="#DejaVuSans-6f" transform="translate(617.626953 0)"/>
       <use xlink:href="#DejaVuSans-47" transform="translate(678.808594 0)"/>
      </g>
     </g>
    </g>
    <g id="xtick_2">
     <g id="line2d_2">
      <g>
       <use xlink:href="#ma2281555cf" x="153.793388" y="192.24" style="stroke: #000000; stroke-width: 0.8"/>
      </g>
     </g>
     <g id="text_2">
      <!-- Inv A: Rep G -->
      <g transform="translate(108.819187 248.116547) rotate(-45) scale(0.1 -0.1)">
       <use xlink:href="#DejaVuSans-49"/>
       <use xlink:href="#DejaVuSans-6e" transform="translate(29.492188 0)"/>
       <use xlink:href="#DejaVuSans-76" transform="translate(92.871094 0)"/>
       <use xlink:href="#DejaVuSans-20" transform="translate(152.050781 0)"/>
       <use xlink:href="#DejaVuSans-41" transform="translate(183.837891 0)"/>
       <use xlink:href="#DejaVuSans-3a" transform="translate(250.496094 0)"/>
       <use xlink:href="#DejaVuSans-20" transform="translate(284.1875 0)"/>
       <use xlink:href="#DejaVuSans-52" transform="translate(315.974609 0)"/>
       <use xlink:href="#DejaVuSans-65" transform="translate(380.957031 0)"/>
       <use xlink:href="#DejaVuSans-70" transform="translate(442.480469 0)"/>
       <use xlink:href="#DejaVuSans-20" transform="translate(505.957031 0)"/>
       <use xlink:href="#DejaVuSans-47" transform="translate(537.744141 0)"/>
      </g>
     </g>
    </g>
    <g id="xtick_3">
     <g id="line2d_3">
      <g>
       <use xlink:href="#ma2281555cf" x="184.53719" y="192.24" style="stroke: #000000; stroke-width: 0.8"/>
      </g>
     </g>
     <g id="text_3">
      <!-- Inv C : Rep A -->
      <g transform="translate(137.73335 249.946185) rotate(-45) scale(0.1 -0.1)">
       <defs>
        <path id="DejaVuSans-43" d="M 4122 4306 
L 4122 3641 
Q 3803 3938 3442 4084 
Q 3081 4231 2675 4231 
Q 1875 4231 1450 3742 
Q 1025 3253 1025 2328 
Q 1025 1406 1450 917 
Q 1875 428 2675 428 
Q 3081 428 3442 575 
Q 3803 722 4122 1019 
L 4122 359 
Q 3791 134 3420 21 
Q 3050 -91 2638 -91 
Q 1578 -91 968 557 
Q 359 1206 359 2328 
Q 359 3453 968 4101 
Q 1578 4750 2638 4750 
Q 3056 4750 3426 4639 
Q 3797 4528 4122 4306 
z
" transform="scale(0.015625)"/>
       </defs>
       <use xlink:href="#DejaVuSans-49"/>
       <use xlink:href="#DejaVuSans-6e" transform="translate(29.492188 0)"/>
       <use xlink:href="#DejaVuSans-76" transform="translate(92.871094 0)"/>
       <use xlink:href="#DejaVuSans-20" transform="translate(152.050781 0)"/>
       <use xlink:href="#DejaVuSans-43" transform="translate(183.837891 0)"/>
       <use xlink:href="#DejaVuSans-20" transform="translate(253.662109 0)"/>
       <use xlink:href="#DejaVuSans-3a" transform="translate(285.449219 0)"/>
       <use xlink:href="#DejaVuSans-20" transform="translate(319.140625 0)"/>
       <use xlink:href="#DejaVuSans-52" transform="translate(350.927734 0)"/>
       <use xlink:href="#DejaVuSans-65" transform="translate(415.910156 0)"/>
       <use xlink:href="#DejaVuSans-70" transform="translate(477.433594 0)"/>
       <use xlink:href="#DejaVuSans-20" transform="translate(540.910156 0)"/>
       <use xlink:href="#DejaVuSans-41" transform="translate(572.697266 0)"/>
      </g>
     </g>
    </g>
    <g id="xtick_4">
     <g id="line2d_4">
      <g>
       <use xlink:href="#ma2281555cf" x="215.280992" y="192.24" style="stroke: #000000; stroke-width: 0.8"/>
      </g>
     </g>
     <g id="text_4">
      <!-- Inv G: Rep G -->
      <g transform="translate(169.541127 248.882211) rotate(-45) scale(0.1 -0.1)">
       <use xlink:href="#DejaVuSans-49"/>
       <use xlink:href="#DejaVuSans-6e" transform="translate(29.492188 0)"/>
       <use xlink:href="#DejaVuSans-76" transform="translate(92.871094 0)"/>
       <use xlink:href="#DejaVuSans-20" transform="translate(152.050781 0)"/>
       <use xlink:href="#DejaVuSans-47" transform="translate(183.837891 0)"/>
       <use xlink:href="#DejaVuSans-3a" transform="translate(261.328125 0)"/>
       <use xlink:href="#DejaVuSans-20" transform="translate(295.019531 0)"/>
       <use xlink:href="#DejaVuSans-52" transform="translate(326.806641 0)"/>
       <use xlink:href="#DejaVuSans-65" transform="translate(391.789062 0)"/>
       <use xlink:href="#DejaVuSans-70" transform="translate(453.3125 0)"/>
       <use xlink:href="#DejaVuSans-20" transform="translate(516.789062 0)"/>
       <use xlink:href="#DejaVuSans-47" transform="translate(548.576172 0)"/>
      </g>
     </g>
    </g>
    <g id="xtick_5">
     <g id="line2d_5">
      <g>
       <use xlink:href="#ma2281555cf" x="246.024793" y="192.24" style="stroke: #000000; stroke-width: 0.8"/>
      </g>
     </g>
     <g id="text_5">
      <!-- Inv isoC: Rep T -->
      <g transform="translate(192.011779 257.15536) rotate(-45) scale(0.1 -0.1)">
       <defs>
        <path id="DejaVuSans-54" d="M -19 4666 
L 3928 4666 
L 3928 4134 
L 2272 4134 
L 2272 0 
L 1638 0 
L 1638 4134 
L -19 4134 
L -19 4666 
z
" transform="scale(0.015625)"/>
       </defs>
       <use xlink:href="#DejaVuSans-49"/>
       <use xlink:href="#DejaVuSans-6e" transform="translate(29.492188 0)"/>
       <use xlink:href="#DejaVuSans-76" transform="translate(92.871094 0)"/>
       <use xlink:href="#DejaVuSans-20" transform="translate(152.050781 0)"/>
       <use xlink:href="#DejaVuSans-69" transform="translate(183.837891 0)"/>
       <use xlink:href="#DejaVuSans-73" transform="translate(211.621094 0)"/>
       <use xlink:href="#DejaVuSans-6f" transform="translate(263.720703 0)"/>
       <use xlink:href="#DejaVuSans-43" transform="translate(324.902344 0)"/>
       <use xlink:href="#DejaVuSans-3a" transform="translate(394.726562 0)"/>
       <use xlink:href="#DejaVuSans-20" transform="translate(428.417969 0)"/>
       <use xlink:href="#DejaVuSans-52" transform="translate(460.205078 0)"/>
       <use xlink:href="#DejaVuSans-65" transform="translate(525.1875 0)"/>
       <use xlink:href="#DejaVuSans-70" transform="translate(586.710938 0)"/>
       <use xlink:href="#DejaVuSans-20" transform="translate(650.1875 0)"/>
       <use xlink:href="#DejaVuSans-54" transform="translate(681.974609 0)"/>
      </g>
     </g>
    </g>
    <g id="xtick_6">
     <g id="line2d_6">
      <g>
       <use xlink:href="#ma2281555cf" x="276.768595" y="192.24" style="stroke: #000000; stroke-width: 0.8"/>
      </g>
     </g>
     <g id="text_6">
      <!-- Inv C : Rep C -->
      <g transform="translate(229.864214 250.046727) rotate(-45) scale(0.1 -0.1)">
       <use xlink:href="#DejaVuSans-49"/>
       <use xlink:href="#DejaVuSans-6e" transform="translate(29.492188 0)"/>
       <use xlink:href="#DejaVuSans-76" transform="translate(92.871094 0)"/>
       <use xlink:href="#DejaVuSans-20" transform="translate(152.050781 0)"/>
       <use xlink:href="#DejaVuSans-43" transform="translate(183.837891 0)"/>
       <use xlink:href="#DejaVuSans-20" transform="translate(253.662109 0)"/>
       <use xlink:href="#DejaVuSans-3a" transform="translate(285.449219 0)"/>
       <use xlink:href="#DejaVuSans-20" transform="translate(319.140625 0)"/>
       <use xlink:href="#DejaVuSans-52" transform="translate(350.927734 0)"/>
       <use xlink:href="#DejaVuSans-65" transform="translate(415.910156 0)"/>
       <use xlink:href="#DejaVuSans-70" transform="translate(477.433594 0)"/>
       <use xlink:href="#DejaVuSans-20" transform="translate(540.910156 0)"/>
       <use xlink:href="#DejaVuSans-43" transform="translate(572.697266 0)"/>
      </g>
     </g>
    </g>
    <g id="xtick_7">
     <g id="line2d_7">
      <g>
       <use xlink:href="#ma2281555cf" x="307.512397" y="192.24" style="stroke: #000000; stroke-width: 0.8"/>
      </g>
     </g>
     <g id="text_7">
      <!-- Inv C : Rep T -->
      <g transform="translate(261.226734 249.428009) rotate(-45) scale(0.1 -0.1)">
       <use xlink:href="#DejaVuSans-49"/>
       <use xlink:href="#DejaVuSans-6e" transform="translate(29.492188 0)"/>
       <use xlink:href="#DejaVuSans-76" transform="translate(92.871094 0)"/>
       <use xlink:href="#DejaVuSans-20" transform="translate(152.050781 0)"/>
       <use xlink:href="#DejaVuSans-43" transform="translate(183.837891 0)"/>
       <use xlink:href="#DejaVuSans-20" transform="translate(253.662109 0)"/>
       <use xlink:href="#DejaVuSans-3a" transform="translate(285.449219 0)"/>
       <use xlink:href="#DejaVuSans-20" transform="translate(319.140625 0)"/>
       <use xlink:href="#DejaVuSans-52" transform="translate(350.927734 0)"/>
       <use xlink:href="#DejaVuSans-65" transform="translate(415.910156 0)"/>
       <use xlink:href="#DejaVuSans-70" transform="translate(477.433594 0)"/>
       <use xlink:href="#DejaVuSans-20" transform="translate(540.910156 0)"/>
       <use xlink:href="#DejaVuSans-54" transform="translate(572.697266 0)"/>
      </g>
     </g>
    </g>
    <g id="xtick_8">
     <g id="line2d_8">
      <g>
       <use xlink:href="#ma2281555cf" x="338.256198" y="192.24" style="stroke: #000000; stroke-width: 0.8"/>
      </g>
     </g>
     <g id="text_8">
      <!-- Inv T: Rep G -->
      <g transform="translate(294.454248 246.944296) rotate(-45) scale(0.1 -0.1)">
       <use xlink:href="#DejaVuSans-49"/>
       <use xlink:href="#DejaVuSans-6e" transform="translate(29.492188 0)"/>
       <use xlink:href="#DejaVuSans-76" transform="translate(92.871094 0)"/>
       <use xlink:href="#DejaVuSans-20" transform="translate(152.050781 0)"/>
       <use xlink:href="#DejaVuSans-54" transform="translate(183.837891 0)"/>
       <use xlink:href="#DejaVuSans-3a" transform="translate(233.921875 0)"/>
       <use xlink:href="#DejaVuSans-20" transform="translate(267.613281 0)"/>
       <use xlink:href="#DejaVuSans-52" transform="translate(299.400391 0)"/>
       <use xlink:href="#DejaVuSans-65" transform="translate(364.382812 0)"/>
       <use xlink:href="#DejaVuSans-70" transform="translate(425.90625 0)"/>
       <use xlink:href="#DejaVuSans-20" transform="translate(489.382812 0)"/>
       <use xlink:href="#DejaVuSans-47" transform="translate(521.169922 0)"/>
      </g>
     </g>
    </g>
    <g id="xtick_9">
     <g id="line2d_9">
      <g>
       <use xlink:href="#ma2281555cf" x="369" y="192.24" style="stroke: #000000; stroke-width: 0.8"/>
      </g>
     </g>
     <g id="text_9">
      <!-- Inv isoC: Rep C -->
      <g transform="translate(314.368267 257.774078) rotate(-45) scale(0.1 -0.1)">
       <use xlink:href="#DejaVuSans-49"/>
       <use xlink:href="#DejaVuSans-6e" transform="translate(29.492188 0)"/>
       <use xlink:href="#DejaVuSans-76" transform="translate(92.871094 0)"/>
       <use xlink:href="#DejaVuSans-20" transform="translate(152.050781 0)"/>
       <use xlink:href="#DejaVuSans-69" transform="translate(183.837891 0)"/>
       <use xlink:href="#DejaVuSans-73" transform="translate(211.621094 0)"/>
       <use xlink:href="#DejaVuSans-6f" transform="translate(263.720703 0)"/>
       <use xlink:href="#DejaVuSans-43" transform="translate(324.902344 0)"/>
       <use xlink:href="#DejaVuSans-3a" transform="translate(394.726562 0)"/>
       <use xlink:href="#DejaVuSans-20" transform="translate(428.417969 0)"/>
       <use xlink:href="#DejaVuSans-52" transform="translate(460.205078 0)"/>
       <use xlink:href="#DejaVuSans-65" transform="translate(525.1875 0)"/>
       <use xlink:href="#DejaVuSans-70" transform="translate(586.710938 0)"/>
       <use xlink:href="#DejaVuSans-20" transform="translate(650.1875 0)"/>
       <use xlink:href="#DejaVuSans-43" transform="translate(681.974609 0)"/>
      </g>
     </g>
    </g>
    <g id="xtick_10">
     <g id="line2d_10">
      <g>
       <use xlink:href="#ma2281555cf" x="399.743802" y="192.24" style="stroke: #000000; stroke-width: 0.8"/>
      </g>
     </g>
     <g id="text_10">
      <!-- Inv isoC: Rep A -->
      <g transform="translate(345.212611 257.673537) rotate(-45) scale(0.1 -0.1)">
       <use xlink:href="#DejaVuSans-49"/>
       <use xlink:href="#DejaVuSans-6e" transform="translate(29.492188 0)"/>
       <use xlink:href="#DejaVuSans-76" transform="translate(92.871094 0)"/>
       <use xlink:href="#DejaVuSans-20" transform="translate(152.050781 0)"/>
       <use xlink:href="#DejaVuSans-69" transform="translate(183.837891 0)"/>
       <use xlink:href="#DejaVuSans-73" transform="translate(211.621094 0)"/>
       <use xlink:href="#DejaVuSans-6f" transform="translate(263.720703 0)"/>
       <use xlink:href="#DejaVuSans-43" transform="translate(324.902344 0)"/>
       <use xlink:href="#DejaVuSans-3a" transform="translate(394.726562 0)"/>
       <use xlink:href="#DejaVuSans-20" transform="translate(428.417969 0)"/>
       <use xlink:href="#DejaVuSans-52" transform="translate(460.205078 0)"/>
       <use xlink:href="#DejaVuSans-65" transform="translate(525.1875 0)"/>
       <use xlink:href="#DejaVuSans-70" transform="translate(586.710938 0)"/>
       <use xlink:href="#DejaVuSans-20" transform="translate(650.1875 0)"/>
       <use xlink:href="#DejaVuSans-41" transform="translate(681.974609 0)"/>
      </g>
     </g>
    </g>
    <g id="xtick_11">
     <g id="line2d_11">
      <g>
       <use xlink:href="#ma2281555cf" x="430.487603" y="192.24" style="stroke: #000000; stroke-width: 0.8"/>
      </g>
     </g>
     <g id="text_11">
      <!-- Inv G: Rep isoG -->
      <g transform="translate(374.773113 258.856836) rotate(-45) scale(0.1 -0.1)">
       <use xlink:href="#DejaVuSans-49"/>
       <use xlink:href="#DejaVuSans-6e" transform="translate(29.492188 0)"/>
       <use xlink:href="#DejaVuSans-76" transform="translate(92.871094 0)"/>
       <use xlink:href="#DejaVuSans-20" transform="translate(152.050781 0)"/>
       <use xlink:href="#DejaVuSans-47" transform="translate(183.837891 0)"/>
       <use xlink:href="#DejaVuSans-3a" transform="translate(261.328125 0)"/>
       <use xlink:href="#DejaVuSans-20" transform="translate(295.019531 0)"/>
       <use xlink:href="#DejaVuSans-52" transform="translate(326.806641 0)"/>
       <use xlink:href="#DejaVuSans-65" transform="translate(391.789062 0)"/>
       <use xlink:href="#DejaVuSans-70" transform="translate(453.3125 0)"/>
       <use xlink:href="#DejaVuSans-20" transform="translate(516.789062 0)"/>
       <use xlink:href="#DejaVuSans-69" transform="translate(548.576172 0)"/>
       <use xlink:href="#DejaVuSans-73" transform="translate(576.359375 0)"/>
       <use xlink:href="#DejaVuSans-6f" transform="translate(628.458984 0)"/>
       <use xlink:href="#DejaVuSans-47" transform="translate(689.640625 0)"/>
      </g>
     </g>
    </g>
    <g id="xtick_12">
     <g id="line2d_12">
      <g>
       <use xlink:href="#ma2281555cf" x="461.231405" y="192.24" style="stroke: #000000; stroke-width: 0.8"/>
      </g>
     </g>
     <g id="text_12">
      <!-- Inv T: Rep isoG -->
      <g transform="translate(407.454829 256.918921) rotate(-45) scale(0.1 -0.1)">
       <use xlink:href="#DejaVuSans-49"/>
       <use xlink:href="#DejaVuSans-6e" transform="translate(29.492188 0)"/>
       <use xlink:href="#DejaVuSans-76" transform="translate(92.871094 0)"/>
       <use xlink:href="#DejaVuSans-20" transform="translate(152.050781 0)"/>
       <use xlink:href="#DejaVuSans-54" transform="translate(183.837891 0)"/>
       <use xlink:href="#DejaVuSans-3a" transform="translate(233.921875 0)"/>
       <use xlink:href="#DejaVuSans-20" transform="translate(267.613281 0)"/>
       <use xlink:href="#DejaVuSans-52" transform="translate(299.400391 0)"/>
       <use xlink:href="#DejaVuSans-65" transform="translate(364.382812 0)"/>
       <use xlink:href="#DejaVuSans-70" transform="translate(425.90625 0)"/>
       <use xlink:href="#DejaVuSans-20" transform="translate(489.382812 0)"/>
       <use xlink:href="#DejaVuSans-69" transform="translate(521.169922 0)"/>
       <use xlink:href="#DejaVuSans-73" transform="translate(548.953125 0)"/>
       <use xlink:href="#DejaVuSans-6f" transform="translate(601.052734 0)"/>
       <use xlink:href="#DejaVuSans-47" transform="translate(662.234375 0)"/>
      </g>
     </g>
    </g>
    <g id="xtick_13">
     <g id="line2d_13">
      <g>
       <use xlink:href="#ma2281555cf" x="491.975207" y="192.24" style="stroke: #000000; stroke-width: 0.8"/>
      </g>
     </g>
     <g id="text_13">
      <!-- Inv isoC : Rep G -->
      <g transform="translate(434.554821 260.562731) rotate(-45) scale(0.1 -0.1)">
       <use xlink:href="#DejaVuSans-49"/>
       <use xlink:href="#DejaVuSans-6e" transform="translate(29.492188 0)"/>
       <use xlink:href="#DejaVuSans-76" transform="translate(92.871094 0)"/>
       <use xlink:href="#DejaVuSans-20" transform="translate(152.050781 0)"/>
       <use xlink:href="#DejaVuSans-69" transform="translate(183.837891 0)"/>
       <use xlink:href="#DejaVuSans-73" transform="translate(211.621094 0)"/>
       <use xlink:href="#DejaVuSans-6f" transform="translate(263.720703 0)"/>
       <use xlink:href="#DejaVuSans-43" transform="translate(324.902344 0)"/>
       <use xlink:href="#DejaVuSans-20" transform="translate(394.726562 0)"/>
       <use xlink:href="#DejaVuSans-3a" transform="translate(426.513672 0)"/>
       <use xlink:href="#DejaVuSans-20" transform="translate(460.205078 0)"/>
       <use xlink:href="#DejaVuSans-52" transform="translate(491.992188 0)"/>
       <use xlink:href="#DejaVuSans-65" transform="translate(556.974609 0)"/>
       <use xlink:href="#DejaVuSans-70" transform="translate(618.498047 0)"/>
       <use xlink:href="#DejaVuSans-20" transform="translate(681.974609 0)"/>
       <use xlink:href="#DejaVuSans-47" transform="translate(713.761719 0)"/>
      </g>
     </g>
    </g>
    <g id="xtick_14">
     <g id="line2d_14">
      <g>
       <use xlink:href="#ma2281555cf" x="522.719008" y="192.24" style="stroke: #000000; stroke-width: 0.8"/>
      </g>
     </g>
     <g id="text_14">
      <!-- Inv C: Rep isoG -->
      <g transform="translate(467.545897 258.315457) rotate(-45) scale(0.1 -0.1)">
       <use xlink:href="#DejaVuSans-49"/>
       <use xlink:href="#DejaVuSans-6e" transform="translate(29.492188 0)"/>
       <use xlink:href="#DejaVuSans-76" transform="translate(92.871094 0)"/>
       <use xlink:href="#DejaVuSans-20" transform="translate(152.050781 0)"/>
       <use xlink:href="#DejaVuSans-43" transform="translate(183.837891 0)"/>
       <use xlink:href="#DejaVuSans-3a" transform="translate(253.662109 0)"/>
       <use xlink:href="#DejaVuSans-20" transform="translate(287.353516 0)"/>
       <use xlink:href="#DejaVuSans-52" transform="translate(319.140625 0)"/>
       <use xlink:href="#DejaVuSans-65" transform="translate(384.123047 0)"/>
       <use xlink:href="#DejaVuSans-70" transform="translate(445.646484 0)"/>
       <use xlink:href="#DejaVuSans-20" transform="translate(509.123047 0)"/>
       <use xlink:href="#DejaVuSans-69" transform="translate(540.910156 0)"/>
       <use xlink:href="#DejaVuSans-73" transform="translate(568.693359 0)"/>
       <use xlink:href="#DejaVuSans-6f" transform="translate(620.792969 0)"/>
       <use xlink:href="#DejaVuSans-47" transform="translate(681.974609 0)"/>
      </g>
     </g>
    </g>
    <g id="xtick_15">
     <g id="line2d_15">
      <g>
       <use xlink:href="#ma2281555cf" x="553.46281" y="192.24" style="stroke: #000000; stroke-width: 0.8"/>
      </g>
     </g>
     <g id="text_15">
      <!-- Inv isoC : Rep isoG -->
      <g transform="translate(486.0678 270.537356) rotate(-45) scale(0.1 -0.1)">
       <use xlink:href="#DejaVuSans-49"/>
       <use xlink:href="#DejaVuSans-6e" transform="translate(29.492188 0)"/>
       <use xlink:href="#DejaVuSans-76" transform="translate(92.871094 0)"/>
       <use xlink:href="#DejaVuSans-20" transform="translate(152.050781 0)"/>
       <use xlink:href="#DejaVuSans-69" transform="translate(183.837891 0)"/>
       <use xlink:href="#DejaVuSans-73" transform="translate(211.621094 0)"/>
       <use xlink:href="#DejaVuSans-6f" transform="translate(263.720703 0)"/>
       <use xlink:href="#DejaVuSans-43" transform="translate(324.902344 0)"/>
       <use xlink:href="#DejaVuSans-20" transform="translate(394.726562 0)"/>
       <use xlink:href="#DejaVuSans-3a" transform="translate(426.513672 0)"/>
       <use xlink:href="#DejaVuSans-20" transform="translate(460.205078 0)"/>
       <use xlink:href="#DejaVuSans-52" transform="translate(491.992188 0)"/>
       <use xlink:href="#DejaVuSans-65" transform="translate(556.974609 0)"/>
       <use xlink:href="#DejaVuSans-70" transform="translate(618.498047 0)"/>
       <use xlink:href="#DejaVuSans-20" transform="translate(681.974609 0)"/>
       <use xlink:href="#DejaVuSans-69" transform="translate(713.761719 0)"/>
       <use xlink:href="#DejaVuSans-73" transform="translate(741.544922 0)"/>
       <use xlink:href="#DejaVuSans-6f" transform="translate(793.644531 0)"/>
       <use xlink:href="#DejaVuSans-47" transform="translate(854.826172 0)"/>
      </g>
     </g>
    </g>
    <g id="xtick_16">
     <g id="line2d_16">
      <g>
       <use xlink:href="#ma2281555cf" x="584.206612" y="192.24" style="stroke: #000000; stroke-width: 0.8"/>
      </g>
     </g>
     <g id="text_16">
      <!-- Inv C: Rep G -->
      <g transform="translate(539.008125 248.340832) rotate(-45) scale(0.1 -0.1)">
       <use xlink:href="#DejaVuSans-49"/>
       <use xlink:href="#DejaVuSans-6e" transform="translate(29.492188 0)"/>
       <use xlink:href="#DejaVuSans-76" transform="translate(92.871094 0)"/>
       <use xlink:href="#DejaVuSans-20" transform="translate(152.050781 0)"/>
       <use xlink:href="#DejaVuSans-43" transform="translate(183.837891 0)"/>
       <use xlink:href="#DejaVuSans-3a" transform="translate(253.662109 0)"/>
       <use xlink:href="#DejaVuSans-20" transform="translate(287.353516 0)"/>
       <use xlink:href="#DejaVuSans-52" transform="translate(319.140625 0)"/>
       <use xlink:href="#DejaVuSans-65" transform="translate(384.123047 0)"/>
       <use xlink:href="#DejaVuSans-70" transform="translate(445.646484 0)"/>
       <use xlink:href="#DejaVuSans-20" transform="translate(509.123047 0)"/>
       <use xlink:href="#DejaVuSans-47" transform="translate(540.910156 0)"/>
      </g>
     </g>
    </g>
    <g id="xtick_17">
     <g id="line2d_17">
      <g>
       <use xlink:href="#ma2281555cf" x="614.950413" y="192.24" style="stroke: #000000; stroke-width: 0.8"/>
      </g>
     </g>
     <g id="text_17">
      <!-- time -->
      <g transform="translate(597.504763 220.587996) rotate(-45) scale(0.1 -0.1)">
       <defs>
        <path id="DejaVuSans-74" d="M 1172 4494 
L 1172 3500 
L 2356 3500 
L 2356 3053 
L 1172 3053 
L 1172 1153 
Q 1172 725 1289 603 
Q 1406 481 1766 481 
L 2356 481 
L 2356 0 
L 1766 0 
Q 1100 0 847 248 
Q 594 497 594 1153 
L 594 3053 
L 172 3053 
L 172 3500 
L 594 3500 
L 594 4494 
L 1172 4494 
z
" transform="scale(0.015625)"/>
        <path id="DejaVuSans-6d" d="M 3328 2828 
Q 3544 3216 3844 3400 
Q 4144 3584 4550 3584 
Q 5097 3584 5394 3201 
Q 5691 2819 5691 2113 
L 5691 0 
L 5113 0 
L 5113 2094 
Q 5113 2597 4934 2840 
Q 4756 3084 4391 3084 
Q 3944 3084 3684 2787 
Q 3425 2491 3425 1978 
L 3425 0 
L 2847 0 
L 2847 2094 
Q 2847 2600 2669 2842 
Q 2491 3084 2119 3084 
Q 1678 3084 1418 2786 
Q 1159 2488 1159 1978 
L 1159 0 
L 581 0 
L 581 3500 
L 1159 3500 
L 1159 2956 
Q 1356 3278 1631 3431 
Q 1906 3584 2284 3584 
Q 2666 3584 2933 3390 
Q 3200 3197 3328 2828 
z
" transform="scale(0.015625)"/>
       </defs>
       <use xlink:href="#DejaVuSans-74"/>
       <use xlink:href="#DejaVuSans-69" transform="translate(39.208984 0)"/>
       <use xlink:href="#DejaVuSans-6d" transform="translate(66.992188 0)"/>
       <use xlink:href="#DejaVuSans-65" transform="translate(164.404297 0)"/>
      </g>
     </g>
    </g>
    <g id="text_18">
     <!-- Base interaction -->
     <g transform="translate(320.033437 285.126042) scale(0.12 -0.12)">
      <defs>
       <path id="DejaVuSans-42" d="M 1259 2228 
L 1259 519 
L 2272 519 
Q 2781 519 3026 730 
Q 3272 941 3272 1375 
Q 3272 1813 3026 2020 
Q 2781 2228 2272 2228 
L 1259 2228 
z
M 1259 4147 
L 1259 2741 
L 2194 2741 
Q 2656 2741 2882 2914 
Q 3109 3088 3109 3444 
Q 3109 3797 2882 3972 
Q 2656 4147 2194 4147 
L 1259 4147 
z
M 628 4666 
L 2241 4666 
Q 2963 4666 3353 4366 
Q 3744 4066 3744 3513 
Q 3744 3084 3544 2831 
Q 3344 2578 2956 2516 
Q 3422 2416 3680 2098 
Q 3938 1781 3938 1306 
Q 3938 681 3513 340 
Q 3088 0 2303 0 
L 628 0 
L 628 4666 
z
" transform="scale(0.015625)"/>
       <path id="DejaVuSans-61" d="M 2194 1759 
Q 1497 1759 1228 1600 
Q 959 1441 959 1056 
Q 959 750 1161 570 
Q 1363 391 1709 391 
Q 2188 391 2477 730 
Q 2766 1069 2766 1631 
L 2766 1759 
L 2194 1759 
z
M 3341 1997 
L 3341 0 
L 2766 0 
L 2766 531 
Q 2569 213 2275 61 
Q 1981 -91 1556 -91 
Q 1019 -91 701 211 
Q 384 513 384 1019 
Q 384 1609 779 1909 
Q 1175 2209 1959 2209 
L 2766 2209 
L 2766 2266 
Q 2766 2663 2505 2880 
Q 2244 3097 1772 3097 
Q 1472 3097 1187 3025 
Q 903 2953 641 2809 
L 641 3341 
Q 956 3463 1253 3523 
Q 1550 3584 1831 3584 
Q 2591 3584 2966 3190 
Q 3341 2797 3341 1997 
z
" transform="scale(0.015625)"/>
       <path id="DejaVuSans-72" d="M 2631 2963 
Q 2534 3019 2420 3045 
Q 2306 3072 2169 3072 
Q 1681 3072 1420 2755 
Q 1159 2438 1159 1844 
L 1159 0 
L 581 0 
L 581 3500 
L 1159 3500 
L 1159 2956 
Q 1341 3275 1631 3429 
Q 1922 3584 2338 3584 
Q 2397 3584 2469 3576 
Q 2541 3569 2628 3553 
L 2631 2963 
z
" transform="scale(0.015625)"/>
       <path id="DejaVuSans-63" d="M 3122 3366 
L 3122 2828 
Q 2878 2963 2633 3030 
Q 2388 3097 2138 3097 
Q 1578 3097 1268 2742 
Q 959 2388 959 1747 
Q 959 1106 1268 751 
Q 1578 397 2138 397 
Q 2388 397 2633 464 
Q 2878 531 3122 666 
L 3122 134 
Q 2881 22 2623 -34 
Q 2366 -91 2075 -91 
Q 1284 -91 818 406 
Q 353 903 353 1747 
Q 353 2603 823 3093 
Q 1294 3584 2113 3584 
Q 2378 3584 2631 3529 
Q 2884 3475 3122 3366 
z
" transform="scale(0.015625)"/>
      </defs>
      <use xlink:href="#DejaVuSans-42"/>
      <use xlink:href="#DejaVuSans-61" transform="translate(68.603516 0)"/>
      <use xlink:href="#DejaVuSans-73" transform="translate(129.882812 0)"/>
      <use xlink:href="#DejaVuSans-65" transform="translate(181.982422 0)"/>
      <use xlink:href="#DejaVuSans-20" transform="translate(243.505859 0)"/>
      <use xlink:href="#DejaVuSans-69" transform="translate(275.292969 0)"/>
      <use xlink:href="#DejaVuSans-6e" transform="translate(303.076172 0)"/>
      <use xlink:href="#DejaVuSans-74" transform="translate(366.455078 0)"/>
      <use xlink:href="#DejaVuSans-65" transform="translate(405.664062 0)"/>
      <use xlink:href="#DejaVuSans-72" transform="translate(467.1875 0)"/>
      <use xlink:href="#DejaVuSans-61" transform="translate(508.300781 0)"/>
      <use xlink:href="#DejaVuSans-63" transform="translate(569.580078 0)"/>
      <use xlink:href="#DejaVuSans-74" transform="translate(624.560547 0)"/>
      <use xlink:href="#DejaVuSans-69" transform="translate(663.769531 0)"/>
      <use xlink:href="#DejaVuSans-6f" transform="translate(691.552734 0)"/>
      <use xlink:href="#DejaVuSans-6e" transform="translate(752.734375 0)"/>
     </g>
    </g>
   </g>
   <g id="matplotlib.axis_2">
    <g id="ytick_1">
     <g id="line2d_18">
      <defs>
       <path id="mb799d919be" d="M 0 0 
L -3.5 0 
" style="stroke: #000000; stroke-width: 0.8"/>
      </defs>
      <g>
       <use xlink:href="#mb799d919be" x="90" y="192.24" style="stroke: #000000; stroke-width: 0.8"/>
      </g>
     </g>
     <g id="text_19">
      <!-- 0 -->
      <g transform="translate(76.6375 196.039219) scale(0.1 -0.1)">
       <defs>
        <path id="DejaVuSans-30" d="M 2034 4250 
Q 1547 4250 1301 3770 
Q 1056 3291 1056 2328 
Q 1056 1369 1301 889 
Q 1547 409 2034 409 
Q 2525 409 2770 889 
Q 3016 1369 3016 2328 
Q 3016 3291 2770 3770 
Q 2525 4250 2034 4250 
z
M 2034 4750 
Q 2819 4750 3233 4129 
Q 3647 3509 3647 2328 
Q 3647 1150 3233 529 
Q 2819 -91 2034 -91 
Q 1250 -91 836 529 
Q 422 1150 422 2328 
Q 422 3509 836 4129 
Q 1250 4750 2034 4750 
z
" transform="scale(0.015625)"/>
       </defs>
       <use xlink:href="#DejaVuSans-30"/>
      </g>
     </g>
    </g>
    <g id="ytick_2">
     <g id="line2d_19">
      <g>
       <use xlink:href="#mb799d919be" x="90" y="155.624189" style="stroke: #000000; stroke-width: 0.8"/>
      </g>
     </g>
     <g id="text_20">
      <!-- 250 -->
      <g transform="translate(63.9125 159.423407) scale(0.1 -0.1)">
       <defs>
        <path id="DejaVuSans-32" d="M 1228 531 
L 3431 531 
L 3431 0 
L 469 0 
L 469 531 
Q 828 903 1448 1529 
Q 2069 2156 2228 2338 
Q 2531 2678 2651 2914 
Q 2772 3150 2772 3378 
Q 2772 3750 2511 3984 
Q 2250 4219 1831 4219 
Q 1534 4219 1204 4116 
Q 875 4013 500 3803 
L 500 4441 
Q 881 4594 1212 4672 
Q 1544 4750 1819 4750 
Q 2544 4750 2975 4387 
Q 3406 4025 3406 3419 
Q 3406 3131 3298 2873 
Q 3191 2616 2906 2266 
Q 2828 2175 2409 1742 
Q 1991 1309 1228 531 
z
" transform="scale(0.015625)"/>
        <path id="DejaVuSans-35" d="M 691 4666 
L 3169 4666 
L 3169 4134 
L 1269 4134 
L 1269 2991 
Q 1406 3038 1543 3061 
Q 1681 3084 1819 3084 
Q 2600 3084 3056 2656 
Q 3513 2228 3513 1497 
Q 3513 744 3044 326 
Q 2575 -91 1722 -91 
Q 1428 -91 1123 -41 
Q 819 9 494 109 
L 494 744 
Q 775 591 1075 516 
Q 1375 441 1709 441 
Q 2250 441 2565 725 
Q 2881 1009 2881 1497 
Q 2881 1984 2565 2268 
Q 2250 2553 1709 2553 
Q 1456 2553 1204 2497 
Q 953 2441 691 2322 
L 691 4666 
z
" transform="scale(0.015625)"/>
       </defs>
       <use xlink:href="#DejaVuSans-32"/>
       <use xlink:href="#DejaVuSans-35" transform="translate(63.623047 0)"/>
       <use xlink:href="#DejaVuSans-30" transform="translate(127.246094 0)"/>
      </g>
     </g>
    </g>
    <g id="ytick_3">
     <g id="line2d_20">
      <g>
       <use xlink:href="#mb799d919be" x="90" y="119.008377" style="stroke: #000000; stroke-width: 0.8"/>
      </g>
     </g>
     <g id="text_21">
      <!-- 500 -->
      <g transform="translate(63.9125 122.807596) scale(0.1 -0.1)">
       <use xlink:href="#DejaVuSans-35"/>
       <use xlink:href="#DejaVuSans-30" transform="translate(63.623047 0)"/>
       <use xlink:href="#DejaVuSans-30" transform="translate(127.246094 0)"/>
      </g>
     </g>
    </g>
    <g id="ytick_4">
     <g id="line2d_21">
      <g>
       <use xlink:href="#mb799d919be" x="90" y="82.392566" style="stroke: #000000; stroke-width: 0.8"/>
      </g>
     </g>
     <g id="text_22">
      <!-- 750 -->
      <g transform="translate(63.9125 86.191785) scale(0.1 -0.1)">
       <defs>
        <path id="DejaVuSans-37" d="M 525 4666 
L 3525 4666 
L 3525 4397 
L 1831 0 
L 1172 0 
L 2766 4134 
L 525 4134 
L 525 4666 
z
" transform="scale(0.015625)"/>
       </defs>
       <use xlink:href="#DejaVuSans-37"/>
       <use xlink:href="#DejaVuSans-35" transform="translate(63.623047 0)"/>
       <use xlink:href="#DejaVuSans-30" transform="translate(127.246094 0)"/>
      </g>
     </g>
    </g>
    <g id="ytick_5">
     <g id="line2d_22">
      <g>
       <use xlink:href="#mb799d919be" x="90" y="45.776755" style="stroke: #000000; stroke-width: 0.8"/>
      </g>
     </g>
     <g id="text_23">
      <!-- 1000 -->
      <g transform="translate(57.55 49.575973) scale(0.1 -0.1)">
       <defs>
        <path id="DejaVuSans-31" d="M 794 531 
L 1825 531 
L 1825 4091 
L 703 3866 
L 703 4441 
L 1819 4666 
L 2450 4666 
L 2450 531 
L 3481 531 
L 3481 0 
L 794 0 
L 794 531 
z
" transform="scale(0.015625)"/>
       </defs>
       <use xlink:href="#DejaVuSans-31"/>
       <use xlink:href="#DejaVuSans-30" transform="translate(63.623047 0)"/>
       <use xlink:href="#DejaVuSans-30" transform="translate(127.246094 0)"/>
       <use xlink:href="#DejaVuSans-30" transform="translate(190.869141 0)"/>
      </g>
     </g>
    </g>
    <g id="text_24">
     <!-- Fractional completion at 12h -->
     <g transform="translate(51.054375 195.0375) rotate(-90) scale(0.12 -0.12)">
      <defs>
       <path id="DejaVuSans-46" d="M 628 4666 
L 3309 4666 
L 3309 4134 
L 1259 4134 
L 1259 2759 
L 3109 2759 
L 3109 2228 
L 1259 2228 
L 1259 0 
L 628 0 
L 628 4666 
z
" transform="scale(0.015625)"/>
       <path id="DejaVuSans-6c" d="M 603 4863 
L 1178 4863 
L 1178 0 
L 603 0 
L 603 4863 
z
" transform="scale(0.015625)"/>
       <path id="DejaVuSans-68" d="M 3513 2113 
L 3513 0 
L 2938 0 
L 2938 2094 
Q 2938 2591 2744 2837 
Q 2550 3084 2163 3084 
Q 1697 3084 1428 2787 
Q 1159 2491 1159 1978 
L 1159 0 
L 581 0 
L 581 4863 
L 1159 4863 
L 1159 2956 
Q 1366 3272 1645 3428 
Q 1925 3584 2291 3584 
Q 2894 3584 3203 3211 
Q 3513 2838 3513 2113 
z
" transform="scale(0.015625)"/>
      </defs>
      <use xlink:href="#DejaVuSans-46"/>
      <use xlink:href="#DejaVuSans-72" transform="translate(50.269531 0)"/>
      <use xlink:href="#DejaVuSans-61" transform="translate(91.382812 0)"/>
      <use xlink:href="#DejaVuSans-63" transform="translate(152.662109 0)"/>
      <use xlink:href="#DejaVuSans-74" transform="translate(207.642578 0)"/>
      <use xlink:href="#DejaVuSans-69" transform="translate(246.851562 0)"/>
      <use xlink:href="#DejaVuSans-6f" transform="translate(274.634766 0)"/>
      <use xlink:href="#DejaVuSans-6e" transform="translate(335.816406 0)"/>
      <use xlink:href="#DejaVuSans-61" transform="translate(399.195312 0)"/>
      <use xlink:href="#DejaVuSans-6c" transform="translate(460.474609 0)"/>
      <use xlink:href="#DejaVuSans-20" transform="translate(488.257812 0)"/>
      <use xlink:href="#DejaVuSans-63" transform="translate(520.044922 0)"/>
      <use xlink:href="#DejaVuSans-6f" transform="translate(575.025391 0)"/>
      <use xlink:href="#DejaVuSans-6d" transform="translate(636.207031 0)"/>
      <use xlink:href="#DejaVuSans-70" transform="translate(733.619141 0)"/>
      <use xlink:href="#DejaVuSans-6c" transform="translate(797.095703 0)"/>
      <use xlink:href="#DejaVuSans-65" transform="translate(824.878906 0)"/>
      <use xlink:href="#DejaVuSans-74" transform="translate(886.402344 0)"/>
      <use xlink:href="#DejaVuSans-69" transform="translate(925.611328 0)"/>
      <use xlink:href="#DejaVuSans-6f" transform="translate(953.394531 0)"/>
      <use xlink:href="#DejaVuSans-6e" transform="translate(1014.576172 0)"/>
      <use xlink:href="#DejaVuSans-20" transform="translate(1077.955078 0)"/>
      <use xlink:href="#DejaVuSans-61" transform="translate(1109.742188 0)"/>
      <use xlink:href="#DejaVuSans-74" transform="translate(1171.021484 0)"/>
      <use xlink:href="#DejaVuSans-20" transform="translate(1210.230469 0)"/>
      <use xlink:href="#DejaVuSans-31" transform="translate(1242.017578 0)"/>
      <use xlink:href="#DejaVuSans-32" transform="translate(1305.640625 0)"/>
      <use xlink:href="#DejaVuSans-68" transform="translate(1369.263672 0)"/>
     </g>
    </g>
   </g>
   <g id="patch_20">
    <path d="M 90 192.24 
L 90 25.92 
" style="fill: none; stroke: #000000; stroke-width: 0.8; stroke-linejoin: miter; stroke-linecap: square"/>
   </g>
   <g id="patch_21">
    <path d="M 648 192.24 
L 648 25.92 
" style="fill: none; stroke: #000000; stroke-width: 0.8; stroke-linejoin: miter; stroke-linecap: square"/>
   </g>
   <g id="patch_22">
    <path d="M 90 192.24 
L 648 192.24 
" style="fill: none; stroke: #000000; stroke-width: 0.8; stroke-linejoin: miter; stroke-linecap: square"/>
   </g>
   <g id="patch_23">
    <path d="M 90 25.92 
L 648 25.92 
" style="fill: none; stroke: #000000; stroke-width: 0.8; stroke-linejoin: miter; stroke-linecap: square"/>
   </g>
   <g id="text_25">
    <!-- Percent completion at 12 hours by base interaction -->
    <g transform="translate(137.943281 19.92) scale(0.18 -0.18)">
     <defs>
      <path id="DejaVuSans-50" d="M 1259 4147 
L 1259 2394 
L 2053 2394 
Q 2494 2394 2734 2622 
Q 2975 2850 2975 3272 
Q 2975 3691 2734 3919 
Q 2494 4147 2053 4147 
L 1259 4147 
z
M 628 4666 
L 2053 4666 
Q 2838 4666 3239 4311 
Q 3641 3956 3641 3272 
Q 3641 2581 3239 2228 
Q 2838 1875 2053 1875 
L 1259 1875 
L 1259 0 
L 628 0 
L 628 4666 
z
" transform="scale(0.015625)"/>
      <path id="DejaVuSans-75" d="M 544 1381 
L 544 3500 
L 1119 3500 
L 1119 1403 
Q 1119 906 1312 657 
Q 1506 409 1894 409 
Q 2359 409 2629 706 
Q 2900 1003 2900 1516 
L 2900 3500 
L 3475 3500 
L 3475 0 
L 2900 0 
L 2900 538 
Q 2691 219 2414 64 
Q 2138 -91 1772 -91 
Q 1169 -91 856 284 
Q 544 659 544 1381 
z
M 1991 3584 
L 1991 3584 
z
" transform="scale(0.015625)"/>
      <path id="DejaVuSans-62" d="M 3116 1747 
Q 3116 2381 2855 2742 
Q 2594 3103 2138 3103 
Q 1681 3103 1420 2742 
Q 1159 2381 1159 1747 
Q 1159 1113 1420 752 
Q 1681 391 2138 391 
Q 2594 391 2855 752 
Q 3116 1113 3116 1747 
z
M 1159 2969 
Q 1341 3281 1617 3432 
Q 1894 3584 2278 3584 
Q 2916 3584 3314 3078 
Q 3713 2572 3713 1747 
Q 3713 922 3314 415 
Q 2916 -91 2278 -91 
Q 1894 -91 1617 61 
Q 1341 213 1159 525 
L 1159 0 
L 581 0 
L 581 4863 
L 1159 4863 
L 1159 2969 
z
" transform="scale(0.015625)"/>
      <path id="DejaVuSans-79" d="M 2059 -325 
Q 1816 -950 1584 -1140 
Q 1353 -1331 966 -1331 
L 506 -1331 
L 506 -850 
L 844 -850 
Q 1081 -850 1212 -737 
Q 1344 -625 1503 -206 
L 1606 56 
L 191 3500 
L 800 3500 
L 1894 763 
L 2988 3500 
L 3597 3500 
L 2059 -325 
z
" transform="scale(0.015625)"/>
     </defs>
     <use xlink:href="#DejaVuSans-50"/>
     <use xlink:href="#DejaVuSans-65" transform="translate(56.677734 0)"/>
     <use xlink:href="#DejaVuSans-72" transform="translate(118.201172 0)"/>
     <use xlink:href="#DejaVuSans-63" transform="translate(157.064453 0)"/>
     <use xlink:href="#DejaVuSans-65" transform="translate(212.044922 0)"/>
     <use xlink:href="#DejaVuSans-6e" transform="translate(273.568359 0)"/>
     <use xlink:href="#DejaVuSans-74" transform="translate(336.947266 0)"/>
     <use xlink:href="#DejaVuSans-20" transform="translate(376.15625 0)"/>
     <use xlink:href="#DejaVuSans-63" transform="translate(407.943359 0)"/>
     <use xlink:href="#DejaVuSans-6f" transform="translate(462.923828 0)"/>
     <use xlink:href="#DejaVuSans-6d" transform="translate(524.105469 0)"/>
     <use xlink:href="#DejaVuSans-70" transform="translate(621.517578 0)"/>
     <use xlink:href="#DejaVuSans-6c" transform="translate(684.994141 0)"/>
     <use xlink:href="#DejaVuSans-65" transform="translate(712.777344 0)"/>
     <use xlink:href="#DejaVuSans-74" transform="translate(774.300781 0)"/>
     <use xlink:href="#DejaVuSans-69" transform="translate(813.509766 0)"/>
     <use xlink:href="#DejaVuSans-6f" transform="translate(841.292969 0)"/>
     <use xlink:href="#DejaVuSans-6e" transform="translate(902.474609 0)"/>
     <use xlink:href="#DejaVuSans-20" transform="translate(965.853516 0)"/>
     <use xlink:href="#DejaVuSans-61" transform="translate(997.640625 0)"/>
     <use xlink:href="#DejaVuSans-74" transform="translate(1058.919922 0)"/>
     <use xlink:href="#DejaVuSans-20" transform="translate(1098.128906 0)"/>
     <use xlink:href="#DejaVuSans-31" transform="translate(1129.916016 0)"/>
     <use xlink:href="#DejaVuSans-32" transform="translate(1193.539062 0)"/>
     <use xlink:href="#DejaVuSans-20" transform="translate(1257.162109 0)"/>
     <use xlink:href="#DejaVuSans-68" transform="translate(1288.949219 0)"/>
     <use xlink:href="#DejaVuSans-6f" transform="translate(1352.328125 0)"/>
     <use xlink:href="#DejaVuSans-75" transform="translate(1413.509766 0)"/>
     <use xlink:href="#DejaVuSans-72" transform="translate(1476.888672 0)"/>
     <use xlink:href="#DejaVuSans-73" transform="translate(1518.001953 0)"/>
     <use xlink:href="#DejaVuSans-20" transform="translate(1570.101562 0)"/>
     <use xlink:href="#DejaVuSans-62" transform="translate(1601.888672 0)"/>
     <use xlink:href="#DejaVuSans-79" transform="translate(1665.365234 0)"/>
     <use xlink:href="#DejaVuSans-20" transform="translate(1724.544922 0)"/>
     <use xlink:href="#DejaVuSans-62" transform="translate(1756.332031 0)"/>
     <use xlink:href="#DejaVuSans-61" transform="translate(1819.808594 0)"/>
     <use xlink:href="#DejaVuSans-73" transform="translate(1881.087891 0)"/>
     <use xlink:href="#DejaVuSans-65" transform="translate(1933.1875 0)"/>
     <use xlink:href="#DejaVuSans-20" transform="translate(1994.710938 0)"/>
     <use xlink:href="#DejaVuSans-69" transform="translate(2026.498047 0)"/>
     <use xlink:href="#DejaVuSans-6e" transform="translate(2054.28125 0)"/>
     <use xlink:href="#DejaVuSans-74" transform="translate(2117.660156 0)"/>
     <use xlink:href="#DejaVuSans-65" transform="translate(2156.869141 0)"/>
     <use xlink:href="#DejaVuSans-72" transform="translate(2218.392578 0)"/>
     <use xlink:href="#DejaVuSans-61" transform="translate(2259.505859 0)"/>
     <use xlink:href="#DejaVuSans-63" transform="translate(2320.785156 0)"/>
     <use xlink:href="#DejaVuSans-74" transform="translate(2375.765625 0)"/>
     <use xlink:href="#DejaVuSans-69" transform="translate(2414.974609 0)"/>
     <use xlink:href="#DejaVuSans-6f" transform="translate(2442.757812 0)"/>
     <use xlink:href="#DejaVuSans-6e" transform="translate(2503.939453 0)"/>
    </g>
   </g>
  </g>
 </g>
 <defs>
  <clipPath id="pb990604990">
   <rect x="90" y="25.92" width="558" height="166.32"/>
  </clipPath>
 </defs>
</svg>
